<?xml version="1.0" standalone="no"?>
<svg xmlns="http://www.w3.org/2000/svg" xmlns:xlink="http://www.w3.org/1999/xlink" height="200px" width="200px">
  <defs>
    <pattern id="doodad" width="58" height="58" viewBox="0 0 40 40" patternUnits="userSpaceOnUse" patternTransform="">
      <rect width="100%" height="100%" fill="rgba(216, 244, 245,1)"/>
      <path d="M7.2 7.2a 12.8 12.8 0 0 1 25.6 0a 12.8 12.8 0 0 1 0 25.6a 12.8 12.8 0 0 1-25.6 0a 12.8 12.8 0 0 1 0-25.6M10 16a 4 4 0 0 0 0 8a 6 6 0 0 1 6 6a 4 4 0 0 0 8 0a 6-6 0 0 1 6-6a 4 4 0 0 0 0-8a-6-6 0 0 1-6-6a 4 4 0 0 0-8 0a-6 6 0 0 1-6 6z" fill="rgba(130, 215, 222,1)"/>
      <path d="M10 10a 10 10 0 0 1 20 0a 10 10 0 0 1 0 20a 10 10 0 0 1-20 0a 10 10 0 0 1 0-20M10 16a 4 4 0 0 0 0 8a 6 6 0 0 1 6 6a 4 4 0 0 0 8 0a 6-6 0 0 1 6-6a 4 4 0 0 0 0-8a-6-6 0 0 1-6-6a 4 4 0 0 0-8 0a-6 6 0 0 1-6 6z" fill="rgba(45, 161, 173,1)"/>
    </pattern>
  </defs>
  <rect fill="url(#doodad)" height="200%" width="200%"/>
</svg>
